# Blender v2.58 (sub 0) OBJ File: ''
# www.blender.org
mtllib fruit.mtl
o Mesh_Mesh_Mesh_Fruit_Spher
v 0.114172 -0.140618 0.857785
v 0.114173 -0.000001 0.857785
v 0.189199 -0.140618 1.022615
v 0.114173 0.140617 0.857785
v 0.189199 0.140617 1.022615
v 0.262869 0.525739 -0.809011
v 0.425323 0.850655 -0.309010
v 0.723600 0.447216 -0.525719
v -0.162456 0.850655 -0.499994
v -0.276385 0.447216 -0.850639
v 0.000000 1.000000 0.000001
v 0.850648 0.525736 0.000001
v 0.425323 0.850654 0.309012
v 0.723600 0.447215 0.525721
v -0.688189 0.525736 -0.499996
v -0.525730 0.850652 0.000001
v -0.894425 0.447215 0.000001
v -0.688189 0.525735 0.499998
v -0.162457 0.850653 0.499996
v -0.276385 0.447214 0.850641
v 0.262869 0.525737 0.809013
v 0.951058 0.000000 -0.309013
v 0.951058 -0.000001 0.309013
v 0.894425 -0.447215 -0.000001
v 0.000000 0.000001 -1.000000
v 0.587786 0.000001 -0.809017
v 0.276385 -0.447214 -0.850641
v -0.951058 0.000001 -0.309013
v -0.587786 0.000001 -0.809017
v -0.723600 -0.447215 -0.525721
v -0.587786 -0.000001 0.809017
v -0.951058 -0.000000 0.309013
v -0.723600 -0.447216 0.525719
v 0.587786 -0.000001 0.809017
v 0.000000 -0.000001 1.000000
v 0.276385 -0.447216 0.850639
v 0.688189 -0.525735 -0.499998
v -0.262869 -0.525737 -0.809013
v -0.850648 -0.525736 -0.000001
v -0.262869 -0.525739 0.809011
v 0.688189 -0.525736 0.499996
v 0.162457 -0.850653 -0.499996
v 0.525730 -0.850652 -0.000001
v 0.000000 -1.000000 -0.000001
v -0.425323 -0.850654 -0.309012
v -0.425323 -0.850655 0.309010
v 0.162456 -0.850655 0.499994
v 0.548862 0.140377 1.467540
v 0.548862 -0.140858 1.467540
v 0.378248 -0.140619 1.426419
v 0.378248 0.140616 1.426420
v 0.114173 0.140616 1.308875
v 0.114173 -0.140619 1.308875
v 0.114173 0.140616 1.261590
v 0.114173 -0.140619 1.261590
v -0.023197 -0.141334 1.644260
v -0.023197 -0.000716 1.644260
v -0.283835 -0.140619 1.665395
v -0.283835 -0.000002 1.665395
v 0.114173 -0.140619 1.510777
v 0.114173 -0.000002 1.510778
v -0.023197 0.139901 1.644260
v -0.283835 0.140616 1.665395
v 0.114173 0.140616 1.510778
v 0.423719 -0.140619 1.665395
v 0.423719 -0.000002 1.665395
v 0.733265 -0.140619 1.665395
v 0.733264 -0.000002 1.665395
v 0.423719 0.140616 1.665395
v 0.733264 0.140616 1.665395
v -0.283835 0.140616 1.463493
v -0.283835 -0.000002 1.463493
v -0.149301 0.140616 1.261590
v -0.149301 -0.000002 1.261590
v -0.283835 -0.140619 1.463493
v -0.149301 -0.140619 1.261590
v -0.060652 0.141998 1.100684
v -0.060652 0.001380 1.100684
v -0.149301 0.140617 0.857785
v -0.149301 -0.000001 0.857785
v -0.060652 -0.139237 1.100684
v -0.149301 -0.140618 0.857785
v 0.025711 0.140617 0.857785
v 0.025711 -0.000001 0.857785
v 0.025711 -0.140618 0.857785
v 0.548862 -0.000241 1.467540
v 0.025711 -0.140618 1.059688
v 0.025711 -0.140619 1.261590
v -0.039341 -0.141476 1.438276
v -0.039341 0.139759 1.438276
v 0.025711 0.140616 1.261590
v 0.025711 0.140617 1.059688
vt 0.610813 0.558425
vt 0.623673 0.543075
vt 0.619543 0.572418
vt 0.640585 0.540764
vt 0.650982 0.556539
vt 0.126455 0.794296
vt 0.220260 0.808614
vt 0.169617 0.878319
vt 0.193929 0.727574
vt 0.111985 0.700950
vt 0.262865 0.749973
vt 0.262865 0.893404
vt 0.305470 0.808614
vt 0.356113 0.878319
vt 0.178559 0.633935
vt 0.262865 0.677488
vt 0.262865 0.591328
vt 0.347171 0.633935
vt 0.331802 0.727574
vt 0.413745 0.700950
vt 0.399275 0.794296
vt 0.181719 1.000000
vt 0.344011 1.000000
vt 0.262865 0.091328
vt 0.181553 0.000000
vt 0.344177 0.000000
vt 0.000000 0.750060
vt 0.050151 0.904410
vt 0.111985 0.200950
vt 0.000000 0.250060
vt 0.050254 0.095394
vt 0.181553 0.500000
vt 0.050254 0.595394
vt 0.169617 0.378319
vt 0.181719 0.500000
vt 0.050151 0.404410
vt 0.475476 0.595394
vt 0.344177 0.500000
vt 0.356113 0.378319
vt 0.475579 0.404410
vt 0.344011 0.500000
vt 0.475579 0.904411
vt 0.525730 0.750060
vt 0.413745 0.200950
vt 0.475476 0.095394
vt 0.525730 0.250060
vt 0.178559 0.133935
vt 0.126455 0.294296
vt 0.262865 0.393404
vt 0.399275 0.294296
vt 0.347171 0.133935
vt 0.193929 0.227574
vt 0.262865 0.177488
vt 0.262865 0.249973
vt 0.220260 0.308614
vt 0.305470 0.308614
vt 0.331802 0.227574
vt 0.747420 0.692858
vt 0.704352 0.722624
vt 0.679798 0.694914
vt 0.732203 0.661450
vt 0.699856 0.588771
vt 0.632478 0.636275
vt 0.690224 0.580429
vt 0.628396 0.622813
vt 0.574616 0.691893
vt 0.568080 0.714521
vt 0.546743 0.683622
vt 0.531176 0.693539
vt 0.612900 0.691540
vt 0.600755 0.720749
vt 0.800170 0.565039
vt 0.776531 0.561891
vt 0.799211 0.516595
vt 0.777254 0.532148
vt 0.790878 0.600698
vt 0.758786 0.596929
vt 0.665942 0.739175
vt 0.654114 0.758682
vt 0.695287 0.754968
vt 0.699410 0.778558
vt 0.800170 0.667883
vt 0.775042 0.668029
vt 0.785932 0.714441
vt 0.776309 0.697415
vt 0.755856 0.523493
vt 0.761381 0.500395
vt 0.716299 0.527961
vt 0.715375 0.500000
vt 0.525730 0.658482
vt 0.549579 0.661301
vt 0.541947 0.615379
vt 0.567336 0.626076
vt 0.679290 0.528665
vt 0.679369 0.500543
vt 0.645542 0.518997
vt 0.636379 0.505097
vt 0.555259 0.581192
vt 0.581800 0.590696
vt 0.571870 0.534206
vt 0.586950 0.555998
vt 0.642036 0.531977
vt 0.623609 0.529048
vt 0.607884 0.534201
vt 0.601633 0.556025
vt 0.746767 0.713219
vt 0.731605 0.736413
vt 0.598191 0.582535
vt 0.606025 0.625464
vt 0.587561 0.662136
vt 0.741994 0.560826
vt 0.701064 0.562217
vt 0.666991 0.539701
vn 0.431623 -0.603198 -0.670705
vn 0.541154 0.000000 -0.840907
vn 0.771203 -0.634754 -0.047456
vn 0.431623 0.603198 -0.670705
vn 0.771203 0.634754 -0.047456
vn 0.262856 0.525712 -0.808985
vn 0.425306 0.850642 -0.309000
vn 0.723594 0.447188 -0.525712
vn -0.162450 0.850642 -0.499985
vn -0.276376 0.447218 -0.850642
vn 0.000000 1.000000 0.000000
vn 0.850642 0.525712 0.000000
vn 0.425306 0.850642 0.309000
vn 0.723594 0.447188 0.525712
vn -0.688162 0.525712 -0.499985
vn -0.525712 0.850642 0.000000
vn -0.894406 0.447188 0.000000
vn -0.688162 0.525712 0.499985
vn -0.162450 0.850642 0.499985
vn -0.276376 0.447188 0.850642
vn 0.262856 0.525712 0.808985
vn 0.951048 0.000000 -0.309000
vn 0.951048 0.000000 0.309000
vn 0.894406 -0.447188 0.000000
vn 0.000000 0.000000 -1.000000
vn 0.587756 0.000000 -0.809015
vn 0.276376 -0.447188 -0.850642
vn -0.951048 0.000000 -0.309000
vn -0.587756 0.000000 -0.809015
vn -0.723594 -0.447188 -0.525712
vn -0.587756 0.000000 0.809015
vn -0.951048 0.000000 0.309000
vn -0.723594 -0.447188 0.525712
vn 0.587756 0.000000 0.809015
vn 0.000000 0.000000 1.000000
vn 0.276376 -0.447218 0.850642
vn 0.688162 -0.525712 -0.499985
vn -0.262856 -0.525712 -0.808985
vn -0.850642 -0.525712 0.000000
vn -0.262856 -0.525712 0.808985
vn 0.688162 -0.525712 0.499985
vn 0.162450 -0.850642 -0.499985
vn 0.525712 -0.850642 0.000000
vn 0.000000 -1.000000 0.000000
vn -0.425306 -0.850642 -0.309000
vn -0.425306 -0.850642 0.309000
vn 0.162450 -0.850642 0.499985
vn 0.384564 0.647084 -0.658315
vn 0.383831 -0.648274 -0.657552
vn 0.220252 -0.728111 -0.649098
vn 0.220862 0.728233 -0.648732
vn 0.437544 0.853084 -0.284158
vn 0.439680 -0.851527 -0.285562
vn 0.661702 0.742851 0.101413
vn 0.661702 -0.742851 0.101413
vn 0.317637 -0.638936 0.700583
vn 0.413190 0.000000 0.910611
vn -0.556169 -0.572375 0.602527
vn -0.677908 0.000000 0.735099
vn 0.080447 -0.862484 0.499588
vn 0.153264 0.000000 0.988159
vn 0.318491 0.637623 0.701376
vn -0.554796 0.574023 0.602191
vn 0.074404 0.863399 0.498947
vn -0.172887 -0.658681 0.732261
vn -0.229530 0.000000 0.973266
vn 0.767266 -0.547594 0.333811
vn 0.916990 0.000000 0.398846
vn -0.172430 0.659078 0.731986
vn 0.767022 0.548051 0.333567
vn -0.728568 0.648396 -0.220740
vn -0.957121 0.000000 -0.289651
vn -0.597064 0.717246 -0.359233
vn -0.854762 0.000000 -0.518967
vn -0.730430 -0.646260 -0.220801
vn -0.595141 -0.716117 -0.364605
vn -0.573809 0.817805 -0.043580
vn -0.997040 0.000000 -0.076724
vn -0.678701 0.559618 -0.475509
vn -0.819391 0.000000 -0.573199
vn -0.586840 -0.808374 -0.045686
vn -0.677725 -0.562639 -0.473373
vn 0.001221 0.706290 -0.707877
vn -0.001221 -0.707877 -0.706320
vn 0.731529 0.000000 -0.681783
vn -0.007965 -0.999939 0.000000
vn -0.000732 -0.999969 -0.003327
vn 0.000580 -0.999969 -0.001190
vn -0.000580 0.999969 0.001190
vn 0.000732 0.999969 0.003327
vn 0.007965 0.999939 0.000000
usemtl Material.004_fruit_Sp
s 1
f 1/1/1 2/2/2 3/3/3
f 4/4/4 3/3/3 2/2/2
f 4/4/4 5/5/5 3/3/3
f 6/6/6 7/7/7 8/8/8
f 7/7/7 6/6/6 9/9/9
f 10/10/10 9/9/9 6/6/6
f 9/9/9 11/11/11 7/7/7
f 12/12/12 8/8/8 7/7/7
f 7/7/7 13/13/13 12/12/12
f 14/14/14 12/12/12 13/13/13
f 7/7/7 11/11/11 13/13/13
f 15/15/15 9/9/9 10/10/10
f 9/9/9 15/15/15 16/16/16
f 17/17/17 16/16/16 15/15/15
f 16/16/16 11/11/11 9/9/9
f 18/18/18 16/16/16 17/17/17
f 16/16/16 18/18/18 19/19/19
f 20/20/20 19/19/19 18/18/18
f 19/19/19 11/11/11 16/16/16
f 21/21/21 19/19/19 20/20/20
f 19/19/19 21/21/21 13/13/13
f 14/14/14 13/13/13 21/21/21
f 13/13/13 11/11/11 19/19/19
f 22/22/22 8/8/8 12/12/12
f 12/12/12 23/23/23 22/22/22
f 24/24/24 22/25/22 23/26/23
f 23/23/23 12/12/12 14/14/14
f 25/27/25 10/10/10 6/6/6
f 6/6/6 26/28/26 25/27/25
f 27/29/27 25/30/25 26/31/26
f 26/28/26 6/6/6 8/8/8
f 28/32/28 17/17/17 15/15/15
f 15/15/15 29/33/29 28/32/28
f 30/34/30 28/35/28 29/36/29
f 29/33/29 15/15/15 10/10/10
f 31/37/31 20/20/20 18/18/18
f 18/18/18 32/38/32 31/37/31
f 33/39/33 31/40/31 32/41/32
f 32/38/32 18/18/18 17/17/17
f 34/42/34 14/14/14 21/21/21
f 21/21/21 35/43/35 34/42/34
f 36/44/36 34/45/34 35/46/35
f 35/43/35 21/21/21 20/20/20
f 37/47/37 22/25/22 24/24/24
f 22/25/22 37/47/37 26/31/26
f 27/29/27 26/31/26 37/47/37
f 26/28/26 8/8/8 22/22/22
f 38/48/38 25/30/25 27/29/27
f 25/30/25 38/48/38 29/36/29
f 30/34/30 29/36/29 38/48/38
f 29/33/29 10/10/10 25/27/25
f 39/49/39 28/35/28 30/34/30
f 28/35/28 39/49/39 32/41/32
f 33/39/33 32/41/32 39/49/39
f 32/38/32 17/17/17 28/32/28
f 40/50/40 31/40/31 33/39/33
f 31/40/31 40/50/40 35/46/35
f 36/44/36 35/46/35 40/50/40
f 35/43/35 20/20/20 31/37/31
f 41/51/41 34/45/34 36/44/36
f 34/45/34 41/51/41 23/26/23
f 24/24/24 23/26/23 41/51/41
f 23/23/23 14/14/14 34/42/34
f 42/52/42 27/29/27 37/47/37
f 37/47/37 43/53/43 42/52/42
f 44/54/44 42/52/42 43/53/43
f 43/53/43 37/47/37 24/24/24
f 45/55/45 30/34/30 38/48/38
f 38/48/38 42/52/42 45/55/45
f 44/54/44 45/55/45 42/52/42
f 42/52/42 38/48/38 27/29/27
f 46/56/46 33/39/33 39/49/39
f 39/49/39 45/55/45 46/56/46
f 44/54/44 46/56/46 45/55/45
f 45/55/45 39/49/39 30/34/30
f 47/57/47 36/44/36 40/50/40
f 40/50/40 46/56/46 47/57/47
f 44/54/44 47/57/47 46/56/46
f 46/56/46 40/50/40 33/39/33
f 43/53/43 24/24/24 41/51/41
f 41/51/41 47/57/47 43/53/43
f 44/54/44 43/53/43 47/57/47
f 47/57/47 41/51/41 36/44/36
f 48/58/48 49/59/49 50/60/50
f 48/58/48 50/60/50 51/61/51
f 52/62/52 51/61/51 50/60/50
f 52/62/52 50/60/50 53/63/53
f 54/64/54 52/62/52 53/63/53
f 54/64/54 53/63/53 55/65/55
f 54/64/54 55/65/55 3/3/3
f 54/64/54 3/3/3 5/5/5
f 56/66/56 57/67/57 58/68/58
f 57/67/57 59/69/59 58/68/58
f 60/70/60 61/71/61 57/67/57
f 60/70/60 57/67/57 56/66/56
f 57/72/57 62/73/62 59/74/59
f 62/73/62 63/75/63 59/74/59
f 61/76/61 64/77/64 62/73/62
f 61/76/61 62/73/62 57/72/57
f 65/78/65 66/79/66 61/71/61
f 65/78/65 61/71/61 60/70/60
f 67/80/67 68/81/68 65/78/65
f 68/81/68 66/79/66 65/78/65
f 66/82/66 69/83/69 64/77/64
f 66/82/66 64/77/64 61/76/61
f 68/84/68 70/85/70 66/82/66
f 70/85/70 69/83/69 66/82/66
f 71/86/71 72/87/72 59/74/59
f 71/86/71 59/74/59 63/75/63
f 73/88/73 74/89/74 72/87/72
f 73/88/73 72/87/72 71/86/71
f 72/90/72 75/91/75 58/68/58
f 72/90/72 58/68/58 59/69/59
f 74/92/74 76/93/76 75/91/75
f 74/92/74 75/91/75 72/90/72
f 77/94/77 78/95/78 73/88/73
f 78/95/78 74/89/74 73/88/73
f 79/96/79 80/97/80 78/95/78
f 79/96/79 78/95/78 77/94/77
f 78/98/78 81/99/81 74/92/74
f 81/99/81 76/93/76 74/92/74
f 80/100/80 82/101/82 81/99/81
f 80/100/80 81/99/81 78/98/78
f 83/102/83 84/103/25 79/96/79
f 84/103/25 80/97/80 79/96/79
f 4/4/4 2/2/2 83/102/83
f 2/2/2 84/103/25 83/102/83
f 84/104/25 85/105/84 80/100/80
f 85/105/84 82/101/82 80/100/80
f 2/2/2 1/1/1 84/104/25
f 1/1/1 85/105/84 84/104/25
f 70/85/70 68/84/68 48/58/48
f 68/84/68 86/106/85 48/58/48
f 68/81/68 67/80/67 86/107/85
f 67/80/67 49/59/49 86/107/85
f 87/108/86 1/1/1 3/3/3
f 85/105/84 1/1/1 87/108/86
f 87/108/86 81/99/81 85/105/84
f 81/99/81 82/101/82 85/105/84
f 55/65/55 88/109/87 87/108/86
f 55/65/55 87/108/86 3/3/3
f 88/109/87 76/93/76 81/99/81
f 88/109/87 81/99/81 87/108/86
f 67/80/67 65/78/65 49/59/49
f 65/78/65 50/60/50 49/59/49
f 65/78/65 60/70/60 50/60/50
f 60/70/60 53/63/53 50/60/50
f 53/63/53 89/110/88 88/109/87
f 53/63/53 88/109/87 55/65/55
f 89/110/88 75/91/75 76/93/76
f 89/110/88 76/93/76 88/109/87
f 60/70/60 56/66/56 89/110/88
f 60/70/60 89/110/88 53/63/53
f 56/66/56 58/68/58 75/91/75
f 56/66/56 75/91/75 89/110/88
f 62/73/62 90/111/89 71/86/71
f 62/73/62 71/86/71 63/75/63
f 90/111/89 91/112/90 73/88/73
f 90/111/89 73/88/73 71/86/71
f 64/77/64 52/62/52 90/111/89
f 64/77/64 90/111/89 62/73/62
f 52/62/52 54/64/54 91/112/90
f 52/62/52 91/112/90 90/111/89
f 91/112/90 92/113/91 77/94/77
f 91/112/90 77/94/77 73/88/73
f 92/113/91 83/102/83 77/94/77
f 83/102/83 79/96/79 77/94/77
f 54/64/54 5/5/5 92/113/91
f 54/64/54 92/113/91 91/112/90
f 5/5/5 4/4/4 92/113/91
f 4/4/4 83/102/83 92/113/91
f 69/83/69 51/61/51 64/77/64
f 51/61/51 52/62/52 64/77/64
f 70/85/70 48/58/48 69/83/69
f 48/58/48 51/61/51 69/83/69
