# Blender3D v249 OBJ File: game.blend
# www.blender3d.org
mtllib head.mtl
o Head_Sphere.001
v 0.003567 -0.871564 -0.001982
v 0.004367 -0.430518 0.859039
v -0.820952 -0.430518 0.264990
v -0.503178 -0.430517 -0.698102
v 0.509021 -0.430518 -0.699029
v 0.828577 -0.430518 0.263107
v -0.501888 0.430518 0.695064
v -0.821445 0.430518 -0.267158
v 0.002766 0.430518 -0.863004
v 0.828085 0.430518 -0.269041
v 0.510311 0.430517 0.694137
v 0.008650 1.242998 0.139435
v 0.004033 -0.807930 0.500466
v -0.474146 -0.807930 0.153726
v -0.473682 -0.502459 0.656178
v 0.481566 -0.807930 0.152843
v 0.482034 -0.502458 0.655294
v -0.292143 -0.807927 -0.408202
v -0.774764 -0.502458 -0.252377
v 0.298524 -0.807930 -0.408743
v 0.002814 -0.502458 -0.814966
v 0.781433 -0.502459 -0.254109
v 0.782184 0.000000 0.558875
v 0.299744 0.000000 0.906690
v -0.290927 -0.000000 0.907236
v -0.774015 0.000000 0.560610
v -1.040448 0.000000 0.001033
v -0.775052 -0.000000 -0.562912
v -0.292612 -0.000000 -0.910655
v 0.298060 0.000000 -0.911201
v 0.781148 -0.000000 -0.564647
v 1.047580 -0.000000 -0.006287
v 0.004319 0.502458 0.811001
v -0.774300 0.502459 0.250072
v -0.474901 0.502458 -0.659259
v 0.480814 0.502459 -0.660143
v 0.781897 0.502458 0.248340
v 0.299558 0.828563 0.412093
v -0.291109 0.828565 0.412635
v -0.474151 0.828565 -0.148952
v 0.003382 0.828565 -0.496575
v 0.481561 0.828565 -0.149835
vt 0.126455 0.294297
vt 0.220261 0.308614
vt 0.169617 0.378320
vt 0.193929 0.227575
vt 0.111985 0.200950
vt 0.262865 0.249973
vt 0.262865 0.393404
vt 0.305470 0.308614
vt 0.356114 0.378320
vt 0.178559 0.133935
vt 0.262865 0.177489
vt 0.262866 0.091328
vt 0.347172 0.133935
vt 0.331802 0.227575
vt 0.413745 0.200950
vt 0.399276 0.294297
vt 0.181720 0.500000
vt 0.344011 0.500000
vt 0.356114 0.621680
vt 0.344012 0.500000
vt 0.475578 0.595588
vt 0.000000 0.250061
vt 0.050152 0.404411
vt 0.169615 0.621682
vt 0.050151 0.595590
vt 0.181718 0.500001
vt 0.181554 0.000000
vt 0.050254 0.095394
vt 0.111986 0.799052
vt 0.050255 0.904607
vt 0.000000 0.749940
vt 0.475477 0.095394
vt 0.344178 0.000000
vt 0.262864 0.908672
vt 0.344178 1.000000
vt 0.181551 1.000000
vt 0.475579 0.404411
vt 0.525731 0.250061
vt 0.413745 0.799052
vt 0.525731 0.749940
vt 0.475476 0.904606
vt 0.262865 0.606596
vt 0.126454 0.705706
vt 0.178559 0.866065
vt 0.347171 0.866065
vt 0.399276 0.705704
vt 0.220260 0.691387
vt 0.305470 0.691386
vt 0.262865 0.750027
vt 0.193929 0.772426
vt 0.262865 0.822511
vt 0.331801 0.772426
vn -0.494766 -0.530290 0.688437
vn 0.000427 -0.877377 0.479751
vn 0.000824 -0.449538 0.893246
vn -0.452681 -0.879086 0.149083
vn -0.813532 -0.495254 0.304697
vn 0.000000 -1.000000 0.000000
vn 0.496231 -0.530198 0.687460
vn 0.452986 -0.879086 0.148289
vn 0.814661 -0.494430 0.303049
vn -0.777917 -0.564440 -0.276040
vn -0.280923 -0.877743 -0.388073
vn -0.522141 -0.450667 -0.724021
vn -0.000763 -0.528886 -0.848659
vn 0.280160 -0.877773 -0.388592
vn 0.520615 -0.450758 -0.725059
vn 0.776879 -0.565111 -0.277566
vn 0.308481 0.000122 0.951201
vn 0.780602 -0.002838 0.624989
vn 0.526048 0.438002 0.728965
vn -0.778436 -0.002899 0.627705
vn -0.306589 0.000122 0.951811
vn -0.524491 0.438276 0.729911
vn -0.780358 0.002838 -0.625294
vn -0.999969 0.000031 0.002441
vn -0.818445 0.486618 -0.305460
vn 0.306558 -0.000122 -0.951842
vn -0.308451 -0.000122 -0.951231
vn -0.000824 0.443983 -0.895993
vn 0.999969 -0.000092 -0.003418
vn 0.778191 0.002930 -0.628010
vn 0.817438 0.487228 -0.307199
vn 0.000732 0.511795 0.859066
vn -0.785607 0.551530 0.280282
vn -0.499191 0.521043 -0.692282
vn 0.497757 0.520981 -0.693381
vn 0.786798 0.550584 0.278817
vn -0.377880 0.715079 0.588061
vn 0.382824 0.713401 0.586871
vn 0.005066 0.989929 0.141301
vn -0.631397 0.760460 -0.151616
vn 0.001038 0.778466 -0.627644
vn 0.634144 0.758110 -0.151891
usemtl Material_head_Sphere.bmp
s 1
f 15/1/1 13/2/2 2/3/3
f 13/2/2 15/1/1 14/4/4
f 3/5/5 14/4/4 15/1/1
f 14/4/4 1/6/6 13/2/2
f 17/7/7 2/3/3 13/2/2
f 13/2/2 16/8/8 17/7/7
f 6/9/9 17/7/7 16/8/8
f 13/2/2 1/6/6 16/8/8
f 19/10/10 14/4/4 3/5/5
f 14/4/4 19/10/10 18/11/11
f 4/12/12 18/11/11 19/10/10
f 18/11/11 1/6/6 14/4/4
f 21/13/13 18/11/11 4/12/12
f 18/11/11 21/13/13 20/14/14
f 5/15/15 20/14/14 21/13/13
f 20/14/14 1/6/6 18/11/11
f 22/16/16 20/14/14 5/15/15
f 20/14/14 22/16/16 16/8/8
f 6/9/9 16/8/8 22/16/16
f 16/8/8 1/6/6 20/14/14
f 24/17/17 2/3/3 17/7/7
f 17/7/7 23/18/18 24/17/17
f 11/19/19 24/20/17 23/21/18
f 23/18/18 17/7/7 6/9/9
f 26/22/20 3/5/5 15/1/1
f 15/1/1 25/23/21 26/22/20
f 7/24/22 26/25/20 25/26/21
f 25/23/21 15/1/1 2/3/3
f 28/27/23 4/12/12 19/10/10
f 19/10/10 27/28/24 28/27/23
f 8/29/25 28/30/23 27/31/24
f 27/28/24 19/10/10 3/5/5
f 30/32/26 5/15/15 21/13/13
f 21/13/13 29/33/27 30/32/26
f 9/34/28 30/35/26 29/36/27
f 29/33/27 21/13/13 4/12/12
f 32/37/29 6/9/9 22/16/16
f 22/16/16 31/38/30 32/37/29
f 10/39/31 32/40/29 31/41/30
f 31/38/30 22/16/16 5/15/15
f 33/42/32 24/20/17 11/19/19
f 24/20/17 33/42/32 25/26/21
f 7/24/22 25/26/21 33/42/32
f 25/23/21 2/3/3 24/17/17
f 34/43/33 26/25/20 7/24/22
f 26/25/20 34/43/33 27/31/24
f 8/29/25 27/31/24 34/43/33
f 27/28/24 3/5/5 26/22/20
f 35/44/34 28/30/23 8/29/25
f 28/30/23 35/44/34 29/36/27
f 9/34/28 29/36/27 35/44/34
f 29/33/27 4/12/12 28/27/23
f 36/45/35 30/35/26 9/34/28
f 30/35/26 36/45/35 31/41/30
f 10/39/31 31/41/30 36/45/35
f 31/38/30 5/15/15 30/32/26
f 37/46/36 32/40/29 10/39/31
f 32/40/29 37/46/36 23/21/18
f 11/19/19 23/21/18 37/46/36
f 23/18/18 6/9/9 32/37/29
f 39/47/37 7/24/22 33/42/32
f 33/42/32 38/48/38 39/47/37
f 12/49/39 39/47/37 38/48/38
f 38/48/38 33/42/32 11/19/19
f 40/50/40 8/29/25 34/43/33
f 34/43/33 39/47/37 40/50/40
f 12/49/39 40/50/40 39/47/37
f 39/47/37 34/43/33 7/24/22
f 41/51/41 9/34/28 35/44/34
f 35/44/34 40/50/40 41/51/41
f 12/49/39 41/51/41 40/50/40
f 40/50/40 35/44/34 8/29/25
f 42/52/42 10/39/31 36/45/35
f 36/45/35 41/51/41 42/52/42
f 12/49/39 42/52/42 41/51/41
f 41/51/41 36/45/35 9/34/28
f 38/48/38 11/19/19 37/46/36
f 37/46/36 42/52/42 38/48/38
f 12/49/39 38/48/38 42/52/42
f 42/52/42 37/46/36 10/39/31
